<svg xmlns="http://www.w3.org/2000/svg" id="lavaLamp" enable-background="new 0 0 400 400" version="1.1" viewBox="0 0 400 400">
    <defs>
        <filter id="goo">
            <feGaussianBlur in="SourceGraphic" result="blur" stdDeviation="9"/>
            <feColorMatrix in="blur" mode="matrix" result="cm" values="1 0 0 0 0  0 1 0 0 0  0 0 1 0 0  0 0 0 30 -9"/>
        </filter>
        <clipPath id="glassMask">
            <rect id="glassShape" width="100vw" height="100vh"/>
        </clipPath>
        <radialGradient id="blob0_2_" cx="292" cy="171.5" r="56.5354" gradientUnits="userSpaceOnUse">
            <stop offset="1.020408e-002" style="stop-color:rgb(255, 156, 18)"/>
            <stop offset="0.1922" style="stop-color:rgb(250, 151, 18)"/>
            <stop offset="0.3992" style="stop-color:rgb(237, 138, 20)"/>
            <stop offset="0.6186" style="stop-color:rgb(214, 115, 22)"/>
            <stop offset="0.8449" style="stop-color:rgb(182, 84, 25)"/>
            <stop offset="1" style="stop-color:rgb(156, 58, 28)"/>
        </radialGradient>
        <radialGradient id="blob1_2_" cx="297" cy="167.5" r="37.2156" gradientUnits="userSpaceOnUse">
            <stop offset="1.020408e-002" style="stop-color:rgb(255, 156, 18)"/>
            <stop offset="0.1922" style="stop-color:rgb(250, 151, 18)"/>
            <stop offset="0.3992" style="stop-color:rgb(237, 138, 20)"/>
            <stop offset="0.6186" style="stop-color:rgb(214, 115, 22)"/>
            <stop offset="0.8449" style="stop-color:rgb(182, 84, 25)"/>
            <stop offset="1" style="stop-color:rgb(156, 58, 28)"/>
        </radialGradient>
        <radialGradient id="blob2_2_" cx="294" cy="157" r="23" gradientUnits="userSpaceOnUse">
            <stop offset="1.020408e-002" style="stop-color:rgb(255, 156, 18)"/>
            <stop offset="0.1922" style="stop-color:rgb(250, 151, 18)"/>
            <stop offset="0.3992" style="stop-color:rgb(237, 138, 20)"/>
            <stop offset="0.6186" style="stop-color:rgb(214, 115, 22)"/>
            <stop offset="0.8449" style="stop-color:rgb(182, 84, 25)"/>
            <stop offset="1" style="stop-color:rgb(156, 58, 28)"/>
        </radialGradient>
        <radialGradient id="blob3_2_" cx="291.9382" cy="167.4587" r="41.0767" gradientUnits="userSpaceOnUse">
            <stop offset="1.020408e-002" style="stop-color:rgb(255, 156, 18)"/>
            <stop offset="0.1922" style="stop-color:rgb(250, 151, 18)"/>
            <stop offset="0.3992" style="stop-color:rgb(237, 138, 20)"/>
            <stop offset="0.6186" style="stop-color:rgb(214, 115, 22)"/>
            <stop offset="0.8449" style="stop-color:rgb(182, 84, 25)"/>
            <stop offset="1" style="stop-color:rgb(156, 58, 28)"/>
        </radialGradient>
        <radialGradient id="blob4_2_" cx="306.5" cy="155" r="14.109" gradientUnits="userSpaceOnUse">
            <stop offset="1.020408e-002" style="stop-color:rgb(255, 156, 18)"/>
            <stop offset="0.1922" style="stop-color:rgb(250, 151, 18)"/>
            <stop offset="0.3992" style="stop-color:rgb(237, 138, 20)"/>
            <stop offset="0.6186" style="stop-color:rgb(214, 115, 22)"/>
            <stop offset="0.8449" style="stop-color:rgb(182, 84, 25)"/>
            <stop offset="1" style="stop-color:rgb(156, 58, 28)"/>
        </radialGradient>
    </defs>
    <g id="blobs" clip-path="url(#glassMask)" filter="url(#goo)">
        <path id="blob0" fill="url(#blob0_2_)" d="M326.2,149.5c-5,19.2-21.4,29.2-37.8,26.6c-16.5-2.9-33.4-12.9-37.1-26.6 c-3.8-13.6,12.5-32.1,37.8-34.9C314.4,111.8,331.3,130.4,326.2,149.5z" data-svg-origin="250.75144958496094 114.31908416748047" style="" transform="matrix(1,0,0,1,0,-0.028274333839761745)"/>
        <path id="blob1" fill="url(#blob1_2_)" d="M320.5,146.4c-4.4,10.1-16.4,20.2-26.8,25.3c-10.4,5.2-22.4-2.9-26.8-15.2 c-4.4-11.6,7.6-20.4,26.8-25.3C312.9,126.3,324.9,135.6,320.5,146.4z" data-svg-origin="265.9910888671875 129.857666015625" style="" transform="matrix(1,0,0,1,0,274.9712127045245)"/>
        <path id="blob2" fill="url(#blob2_2_)" d="M278,147.7c2.7-7.1,9.4-15.7,15.4-16.4c5.9-0.4,12.6,8.5,15.4,16.9 c2.7,8.4-4.2,14.9-15.4,14.2C282.2,161.5,275.3,154.8,278,147.7z" data-svg-origin="277.414794921875 131.28700256347656" style="" transform="matrix(1,0,0,1,0,45.60551595730246)"/>
        <path id="blob5" fill="url(#blob2_2_)" d="M278,147.7c2.7-7.1,9.4-15.7,15.4-16.4c5.9-0.4,12.6,8.5,15.4,16.9 c2.7,8.4-4.2,14.9-15.4,14.2C282.2,161.5,275.3,154.8,278,147.7z" data-svg-origin="277.414794921875 131.28700256347656" style="" transform="matrix(1,0,0,1,0,102.8706995099103)"/>
        <path id="blob3" fill="url(#blob3_2_)" d="M312.7,147.3c-2.1,16.4-15.3,27.2-23.2,25.3c-8.1-1.8-12.6-13-14.8-24.9 c-1.9-11.8,2.7-22.7,14.8-25.3C301.5,119.6,314.7,130.8,312.7,147.3z" data-svg-origin="274.28656005859375 121.97087097167969" style="" transform="matrix(1,0,0,1,0,36.219919738882155)"/>
        <path id="blob4" fill="url(#blob4_2_)" d="M317.8,147.4c-1,8.2-9.8,10.3-13.8,9.3c-4-0.9-6.5-3-7.6-8.9c-1-5.9,2.3-8.5,8.4-9.8 C310.8,136.6,318.8,139.1,317.8,147.4z" data-svg-origin="296.22314453125 137.63340759277344" style="" transform="matrix(1,0,0,1,0,198.45812978053405)"/>
    </g>
</svg>
